<svg width="204" height="125" xmlns="http://www.w3.org/2000/svg" xmlns:xlink="http://www.w3.org/1999/xlink" overflow="hidden"><defs><clipPath id="clip0"><rect x="537" y="147" width="204" height="125"/></clipPath></defs><g clip-path="url(#clip0)" transform="translate(-537 -147)"><path d="M639.5 148.5 739.5 193 639.5 237.5 539.5 193Z" stroke="#2F528F" stroke-width="1.33333" stroke-miterlimit="8" fill-rule="evenodd"/><path d="M110.4 28.4464C116.026 37.6615 119 48.228 119 59" stroke="#000000" stroke-width="13.3333" stroke-miterlimit="8" fill="none" fill-rule="evenodd" transform="matrix(-1 0 0 1 679.5 169.5)"/><path d="M551.5 226.5C551.5 220.977 555.977 216.5 561.5 216.5 567.023 216.5 571.5 220.977 571.5 226.5 571.5 232.023 567.023 236.5 561.5 236.5 555.977 236.5 551.5 232.023 551.5 226.5Z" stroke="#000000" stroke-width="1.33333" stroke-miterlimit="8" fill-rule="evenodd"/><path d="M551.5 254.5 556 227.5 565 227.5 569.5 254.5Z" stroke="#000000" stroke-width="1.33333" stroke-miterlimit="8" fill-rule="evenodd"/><path d="M581.5 262.5C581.5 258.082 607.915 254.5 640.5 254.5 673.085 254.5 699.5 258.082 699.5 262.5 699.5 266.918 673.085 270.5 640.5 270.5 607.915 270.5 581.5 266.918 581.5 262.5Z" stroke="#000000" stroke-width="1.33333" stroke-miterlimit="8" fill-rule="evenodd"/><path d="M599.382 225.176 660.678 256.846 580.266 262.174Z" stroke="#000000" stroke-width="1.33333" stroke-miterlimit="8" fill-rule="evenodd"/><path d="M0 68.4826 0 0 41.6447 68.4826Z" stroke="#000000" stroke-width="1.33333" stroke-miterlimit="8" fill-rule="evenodd" transform="matrix(0.412774 0.910834 0.910834 -0.412774 619.689 252.288)"/></g></svg>