<?xml version="1.0" encoding="utf-8"?>
<svg xmlns="http://www.w3.org/2000/svg" viewBox="0 0 170 100">
  <path style="fill: rgb(216, 216, 216); stroke-width: 4px; paint-order: fill; stroke-linejoin: round; stroke-linecap: round; stroke: rgb(255, 114, 0); fill-opacity: 0; transform-origin: 37.664px 23.423px;" d="M 7.02 17.288 C 7.02 17.288 13.018 9.943 32.955 11.139 C 43.186 11.754 46.84 12.943 51.843 15.215 C 59.938 18.89 72.696 26.321 66.798 31.979 C 61.788 36.786 59.381 37.239 54.885 32.579 C 51.056 28.609 62.311 25.266 62.311 25.266"/>
  <path style="fill: rgb(216, 216, 216); stroke-width: 4px; paint-order: fill; stroke-linejoin: round; stroke-linecap: round; stroke: rgb(255, 114, 0); fill-opacity: 0; transform-origin: 21.573px 41.805px;" d="M 37.424 12.651 C 37.424 12.651 37.31 41.844 31.712 54.907 C 26.793 66.384 5.722 70.958 5.722 70.958"/>
  <path style="fill: rgb(216, 216, 216); stroke-width: 4px; paint-order: fill; stroke-linejoin: round; stroke-linecap: round; stroke: rgb(255, 114, 0); fill-opacity: 0; transform-origin: 32.495px 62.868px;" d="M 34.234 70.657 C 34.234 70.657 28.467 70.585 31.782 55.078"/>
  <path style="fill: rgb(216, 216, 216); stroke-width: 4px; paint-order: fill; stroke-linejoin: round; stroke-linecap: round; stroke: rgb(255, 114, 0); fill-opacity: 0; transform-origin: 81.931px 51.925px;" d="M 72.631 28.585 C 72.631 28.585 86.171 53.237 83.769 66.15 C 83.039 70.089 80.105 76.141 76.57 75.157 C 73.444 74.29 69.853 70.876 70.276 66.979 L 76.373 29.708 C 76.373 29.708 81.816 55.266 86.912 54.626 C 95.079 53.6 93.499 37.238 93.499 37.238"/>
  <path style="fill: rgb(216, 216, 216); stroke-width: 4px; paint-order: fill; stroke-linejoin: round; stroke-linecap: round; stroke: rgb(255, 114, 0); fill-opacity: 0; transform-origin: 116.825px 59.477px;" d="M 128.634 59.544 C 128.634 59.544 122.548 48.232 114.14 49.773 C 105.731 51.313 102.528 62.034 106.411 66.981 C 110.672 72.412 128.873 66.716 128.873 66.716"/>
  <path style="fill: rgb(216, 216, 216); stroke-width: 4px; paint-order: fill; stroke-linejoin: round; stroke-linecap: round; stroke: rgb(255, 114, 0); fill-opacity: 0; transform-origin: 105.964px 48.899px;" d="M 103.228 44.472 C 108.539 44.466 109.791 53.323 107.819 53.325"/>
  <path style="fill: rgb(216, 216, 216); stroke-width: 4px; paint-order: fill; stroke-linejoin: round; stroke-linecap: round; stroke: rgb(255, 114, 0); fill-opacity: 0; transform-origin: 149.574px 40.901px;" d="M 146.459 77.075 C 146.459 77.075 156.564 -3.708 151.032 5.452"/>
  <path style="fill: rgb(216, 216, 216); stroke-width: 4px; paint-order: fill; stroke-linejoin: round; stroke-linecap: round; stroke: rgb(255, 114, 0); fill-opacity: 0; transform-origin: 158.671px 63.157px;" d="M 167.563 52.001 C 167.563 52.001 150.555 50.702 149.843 53.632 C 148.714 58.277 162.871 64.622 162.171 69.852 C 161.472 75.083 157.078 74.588 157.078 74.588"/>
  <path style="fill: rgb(216, 216, 216); stroke-width: 4px; paint-order: fill; stroke-linejoin: round; stroke-linecap: round; stroke: rgb(255, 114, 0); fill-opacity: 0; transform-origin: 151.143px 53.919px;" d="M 136.03 56 C 136.03 56 143.869 53.77 149.307 52.595 C 154.747 51.42 166.205 51.975 166.254 51.929"/>
</svg>